Coordinates

Units are S.I. units (second, meters, Newtons, ...)
If the header above contains a line with 'inDegrees', this indicates whether rotational values are in degrees (yes) or radians (no).

inDegrees=no
nColumns=21
nRows=17
DataType=double
version=3
OpenSimVersion=4.6-2026-03-31-d6972f9e6
endheader
time	/jointset/ground_pelvis/pelvis_tilt/value	/jointset/ground_pelvis/pelvis_list/value	/jointset/ground_pelvis/pelvis_rotation/value	/jointset/ground_pelvis/pelvis_tx/value	/jointset/ground_pelvis/pelvis_ty/value	/jointset/ground_pelvis/pelvis_tz/value	/jointset/hip_r/hip_flexion_r/value	/jointset/hip_r/hip_adduction_r/value	/jointset/hip_r/hip_rotation_r/value	/jointset/walker_knee_r/knee_angle_r/value	/jointset/patellofemoral_r/knee_angle_r_beta/value	/jointset/ankle_r/ankle_angle_r/value	/jointset/subtalar_r/subtalar_angle_r/value	/jointset/hip_l/hip_flexion_l/value	/jointset/hip_l/hip_adduction_l/value	/jointset/hip_l/hip_rotation_l/value	/jointset/walker_knee_l/knee_angle_l/value	/jointset/patellofemoral_l/knee_angle_l_beta/value	/jointset/ankle_l/ankle_angle_l/value	/jointset/subtalar_l/subtalar_angle_l/value
147.996	0.04961030903508186	-0.1428116307571253	1.497538766841129	0.8107379161758981	1.025808985830866	-0.9873896698488599	0.6534631529396975	0.02844597548059765	0.02168954742155912	0.9200319857327895	0.920031987362425	-0.235534910413315	-0.3968760711558332	-0.2442119395725824	-0.02263461569972966	-0.1261163763874986	0.2084186922150688	0.2084186922316356	-0.3394688317476434	-0.097245260509654
148	0.05199817694420572	-0.1471692537781493	1.495974426965297	0.8109830274962753	1.027452673259599	-0.988236517919269	0.6486542700646053	0.03289234172747705	0.01671688198677182	0.8665467619519044	0.8665467634555177	-0.2363101826839574	-0.3901925096046547	-0.2493827147069431	-0.02457821865566607	-0.1280223138363628	0.2071869045944187	0.2071869046026907	-0.3591283627115652	-0.1016687497812035
148.004	0.05383534403936579	-0.1511346691198267	1.494323338285189	0.8112650915826791	1.028961967611739	-0.9890702662700613	0.6427892459179161	0.03692705505941363	0.01202649523971909	0.812441704222674	0.8124417055666735	-0.236903477531455	-0.3815973942305508	-0.2539614617505467	-0.02598968523170334	-0.1299959794044551	0.2082747742027233	0.2082747741986917	-0.3765367597729958	-0.1067224353000914
148.008	0.05508909807127086	-0.1546495351791201	1.492562504110047	0.8115845775627371	1.030330823819317	-0.989885916433372	0.6359208578716995	0.04052039836605541	0.00765627332523427	0.7580189980482179	0.7580189992068329	-0.2373744737787879	-0.371000888559039	-0.2580050585088464	-0.02683996280798585	-0.1320425431848157	0.2117227282345149	0.2117227282235865	-0.3916795914928635	-0.1123549074151084
148.012	0.05573480278894147	-0.157664063164039	1.490671992473764	0.8119411564759478	1.031553766879891	-0.9906784644518299	0.6281223099880386	0.04364456736992126	0.003637475390430359	0.7036173870341277	0.7036173879899663	-0.2377966715633009	-0.3583768646792191	-0.2615645001486667	-0.02710762952861542	-0.1341611037883205	0.2175507392445628	0.2175507392402948	-0.4045870390533784	-0.1185138776879062
148.016	0.05575791366328221	-0.1601378990646867	1.488635558468426	0.8123337089742113	1.032626078172528	-0.9914429260090757	0.6194862595452943	0.04627574600780229	-5.990370251943524e-06	0.6496078966995662	0.6496078974439028	-0.2382523958529696	-0.3437670399795769	-0.2646837730120938	-0.02678106244809558	-0.136345281715226	0.225758400565916	0.2257584005875327	-0.415331660359082	-0.1251473292739666
148.02	0.05515585595285225	-0.1620406516459445	1.486441172889391	0.8127603572429398	1.033543971299927	-0.9921743789068663	0.6101228480336663	0.04839629037847169	-0.003258011878682349	0.5963879102732064	0.5963879108058867	-0.2388270789037028	-0.3272823584151732	-0.2673991355997143	-0.0258604571932544	-0.1385841201242827	0.2363254972994875	0.2363254973685987	-0.424024825220437	-0.1322044246775567
148.024	0.05393961966284833	-0.1633520144079595	1.484081437119382	0.8132185190696521	1.034304741078888	-0.9928680249736603	0.6001567636792201	0.04999685530621049	-0.006110396490138336	0.5443737634067759	0.5443737637355901	-0.2396031171370722	-0.3091013881466778	-0.2697388807418193	-0.02435954354302705	-0.1408631993939436	0.2492130244552044	0.2492130245922072	-0.430811958403321	-0.1396361619830918
148.028	0.05213491666135957	-0.1640614950581351	1.481553853076377	0.8137049821747405	1.034906866095334	-0.9935192719446606	0.5897234853769865	0.05107828196340338	-0.008562643131592645	0.4939921389632939	0.4939921391027715	-0.2406536031698176	-0.2894656255978928	-0.2717235716532623	-0.02230683771925965	-0.1431658803257214	0.2643645991356285	0.2643645993562695	-0.4358667642722717	-0.1473957782162697
148.032	0.04978275708803935	-0.1641678024315071	1.478860913346738	0.8142159973218719	1.0353500470004	-0.9941238334541491	0.5789649343708458	0.05165307214676543	-0.01062136155624314	0.4456706279338922	0.4456706279035965	-0.2420362507256246	-0.2686717963731612	-0.273366701337907	-0.01974628823363048	-0.1454745963687308	0.2817081919273575	0.2817081922399376	-0.4393846601803428	-0.1554389041967144
148.036	0.04693933259520184	-0.1636779614789123	1.47600998041955	0.8147473884272207	1.035635167162824	-0.9946778421528925	0.5680248088157991	0.05174629991920403	-0.01229937359728535	0.3998278850205332	0.3998278848430253	-0.2437878289282025	-0.247061463995099	-0.2746756963770868	-0.01673720459697597	-0.1477721182329626	0.3011580889553977	0.3011580893590499	-0.4415756890536969	-0.1637235049570243
148.04	0.04367513405279658	-0.1626062457898525	1.473012930731889	0.8152946773020684	1.035764167627402	-0.9951779680316104	0.5570439106885773	0.05139584825044136	-0.01361456388012603	0.3568638449374405	0.356863844636104	-0.2459193828303969	-0.2250084413955973	-0.2756531550767242	-0.01335339941452801	-0.1500427174588022	0.3226170003978955	0.3226170008822186	-0.4426571944643449	-0.1722096702293285
148.044	0.04007328849956095	-0.1609730097027694	1.46988555525381	0.8158532200376221	1.035739837139955	-0.995621532478038	0.5461557524473529	0.05065191318094586	-0.01458857681860011	0.3171504512132389	0.3171504508101231	-0.2484124675694213	-0.202904663182421	-0.2762982134725637	-0.00968153365806346	-0.1522731622242477	0.3459782314898828	0.345978232036008	-0.4428465346850744	-0.1808593066446759
148.048	0.0362271770793521	-0.1588034757375868	1.466646735866117	0.8164183507908425	1.035565529287269	-0.9960066083269226	0.5354826605679699	0.04957579126371843	-0.01524548431264277	0.2810232829374576	0.2810232824513175	-0.2512165795017897	-0.1811453070078893	-0.2766079612961647	-0.005818736525717221	-0.1544534997082043	0.3711278295766552	0.3711278301595552	-0.4423541019553045	-0.1896357492110428
148.052	0.03223746322964924	-0.1561265263538515	1.463317440850758	0.8169855273430058	1.035244827441796	-0.9963320961758731	0.5251325377816799	0.04823803366776337	-0.01561055523313247	0.2487743822328615	0.2487743816776768	-0.254247914573288	-0.1601140104133121	-0.2765788313219389	-0.001869643344659565	-0.1565776094393211	0.3979466342456366	0.3979466348371741	-0.4413769016589061	-0.1985033057281602
148.056	0.02820869885641571	-0.1529735558303921	1.459919597404662	0.817550472330872	1.034781183133954	-0.9965977677972611	0.5151964074745984	0.04671609487182642	-0.01570923572338319	0.2206465022852386	0.2206465016695205	-0.2573895174084961	-0.1401690161030016	-0.2762078701486693	0.002056965125146089	-0.1586435323834936	0.4263121800808585	0.426312180652903	-0.4400929210857559	-0.2074267642439733
148.06	0.0242457063243206	-0.1493774364765178	1.456474917730828	0.8181093039210584	1.034177556560631	-0.9968042698750135	0.5057468029105314	0.04509163831602564	-0.01556641789266827	0.1968288882069042	0.1968288875338605	-0.2604928206498853	-0.1216309976132506	-0.2754938006343812	0.005851707234210188	-0.1606535869633806	0.4561004184504308	0.4561004189774709	-0.4386564692836286	-0.2163708988180601
